<svg width="94" height="49" viewBox="0 0 94 49" fill="none" xmlns="http://www.w3.org/2000/svg">
<path fill-rule="evenodd" clip-rule="evenodd" d="M87.5593 24.1522C87.5593 23.0523 87.3663 22.0268 86.9801 21.0755C86.594 20.1243 86.0668 19.292 85.3986 18.5786C84.7303 17.8651 83.9506 17.3078 83.0596 16.9065C82.1685 16.5052 81.2181 16.3045 80.2082 16.3045C79.1984 16.3045 78.2479 16.5052 77.3568 16.9065C76.4658 17.3078 75.6861 17.8651 75.0179 18.5786C74.3495 19.292 73.8224 20.1243 73.4362 21.0755C73.0501 22.0268 72.8571 23.0523 72.8571 24.1522C72.8571 25.2521 73.0501 26.2776 73.4362 27.2289C73.8224 28.18 74.3495 29.0124 75.0179 29.7258C75.6861 30.4392 76.4658 30.9966 77.3568 31.3979C78.2479 31.7992 79.1984 31.9998 80.2082 31.9998C81.2181 31.9998 82.1685 31.7992 83.0596 31.3979C83.9506 30.9966 84.7303 30.4392 85.3986 29.7258C86.0668 29.0124 86.594 28.18 86.9801 27.2289C87.3663 26.2776 87.5593 25.2521 87.5593 24.1522ZM93.9749 24.1522C93.9749 26.0843 93.6184 27.8753 92.9056 29.5251C92.1928 31.175 91.2126 32.6019 89.9652 33.8057C88.7177 35.0096 87.2549 35.9609 85.5768 36.6594C83.8986 37.358 82.1091 37.7072 80.2082 37.7072C78.3073 37.7072 76.5252 37.358 74.8619 36.6594C73.1986 35.9609 71.7432 35.0022 70.4958 33.7834C69.2483 32.5647 68.2682 31.1303 67.5554 29.4805C66.8425 27.8307 66.4861 26.0547 66.4861 24.1522C66.4861 22.2794 66.85 20.5182 67.5776 18.8684C68.3053 17.2186 69.2928 15.7769 70.5403 14.5433C71.7878 13.3096 73.2432 12.3435 74.9065 11.645C76.5697 10.9464 78.337 10.5971 80.2082 10.5971C82.1091 10.5971 83.8986 10.9464 85.5768 11.645C87.2549 12.3435 88.7177 13.2947 89.9652 14.4987C91.2126 15.7026 92.1928 17.1368 92.9056 18.8015C93.6184 20.4662 93.9749 22.2497 93.9749 24.1522ZM64.2584 36.9047C63.7535 37.1425 63.1817 37.3356 62.5432 37.4843C61.9046 37.6329 61.2437 37.7072 60.5606 37.7072C59.6101 37.7072 58.6968 37.5809 57.8206 37.3283C56.9445 37.0755 56.1796 36.6669 55.5262 36.102C54.8727 35.5372 54.353 34.8016 53.9668 33.8949C53.5807 32.9882 53.3876 31.8958 53.3876 30.6176V0.0294876H59.9369V29.5028C59.9369 30.573 60.1522 31.3088 60.5828 31.71C61.0136 32.1113 61.5259 32.312 62.1199 32.312C62.8625 32.312 63.5753 32.089 64.2584 31.6432V36.9047ZM50.4917 11.2214L38.9081 41.854C38.0468 44.1429 36.9181 45.7928 35.5221 46.8034C34.1261 47.8141 32.4629 48.3195 30.5323 48.3195C30.2353 48.3195 29.9085 48.2971 29.5521 48.2525C29.1957 48.208 28.8541 48.141 28.5274 48.0519L26.3889 42.077C26.8938 42.3148 27.4136 42.5006 27.9483 42.6344C28.4829 42.7681 28.9878 42.835 29.463 42.835C30.4729 42.835 31.3936 42.6046 32.2253 42.1438C33.0569 41.6831 33.6955 40.8285 34.141 39.58L35.0321 36.9938L25.0969 11.2214H32.0916L38.0171 27.8085L43.5861 11.2213H50.4917V11.2214ZM23.5375 7.34214H6.78587V15.6357H23.3148V21.2539H6.78587V37.0385H0.013916V1.41177H23.5375V7.34214Z" fill="black"/>
</svg>
